<svg width="10" height="10" viewBox="0 0 10 10" fill="none" xmlns="http://www.w3.org/2000/svg">
<path d="M7.49998 8.74996H2.91665V3.33329L5.83331 0.416626L6.35415 0.937459C6.40276 0.98607 6.44269 1.05204 6.47394 1.13538C6.50519 1.21871 6.52081 1.29857 6.52081 1.37496V1.52079L6.06248 3.33329H8.74998C8.9722 3.33329 9.16665 3.41663 9.33331 3.58329C9.49998 3.74996 9.58331 3.9444 9.58331 4.16663V4.99996C9.58331 5.04857 9.57637 5.10065 9.56248 5.15621C9.54859 5.21176 9.5347 5.26385 9.52081 5.31246L8.27081 8.24996C8.20831 8.38885 8.10415 8.5069 7.95831 8.60413C7.81248 8.70135 7.6597 8.74996 7.49998 8.74996ZM3.74998 7.91663H7.49998L8.74998 4.99996V4.16663H4.99998L5.56248 1.87496L3.74998 3.68746V7.91663ZM2.91665 3.33329V4.16663H1.66665V7.91663H2.91665V8.74996H0.833313V3.33329H2.91665Z" fill="#0052C9"/>
</svg>
