<svg width="16" height="12" viewBox="0 0 16 12" fill="none" xmlns="http://www.w3.org/2000/svg">
<path d="M14.2557 1.03437C15.1596 1.99395 15.645 3.07089 15.645 4.81665C15.645 7.88702 13.4897 10.6396 10.3538 12L9.57053 10.7913C12.4969 9.20794 13.0688 7.15422 13.2975 5.85927C12.8263 6.10292 12.2095 6.18855 11.6049 6.13258C10.0217 5.98579 8.77394 4.6861 8.77394 3.07089C8.77394 1.37488 10.1488 0 11.8448 0C12.7864 0 13.6867 0.43032 14.2557 1.03437ZM5.48176 1.03437C6.38566 1.99395 6.87104 3.07089 6.87104 4.81665C6.87104 7.88702 4.7157 10.6396 1.57981 12L0.796563 10.7913C3.7229 9.20794 4.29484 7.15422 4.52344 5.85927C4.05228 6.10292 3.43551 6.18855 2.83087 6.13258C1.24772 5.98579 0 4.6861 0 3.07089C0 1.37488 1.37488 0 3.07089 0C4.01239 0 4.91272 0.43032 5.48176 1.03437Z" fill="#334155" fill-opacity="0.2"/>
</svg>
