<svg width="16" height="12" viewBox="0 0 16 12" fill="none" xmlns="http://www.w3.org/2000/svg">
<path d="M1.74425 10.9657C0.840359 10.0061 0.354981 8.92917 0.354981 7.18341C0.354981 4.11304 2.51031 1.36047 5.64622 6.10352e-05L6.42947 1.20876C3.50309 2.79212 2.9312 4.84584 2.70255 6.1408C3.17371 5.89714 3.79052 5.81151 4.39514 5.86749C5.97831 6.01427 7.22606 7.31396 7.22606 8.92917C7.22606 10.6252 5.85118 12.0001 4.15517 12.0001C3.21363 12.0001 2.31333 11.5697 1.74425 10.9657ZM10.5182 10.9657C9.61434 10.0061 9.12896 8.92917 9.12896 7.18341C9.12896 4.11304 11.2843 1.36047 14.4202 6.10352e-05L15.2034 1.20876C12.2771 2.79212 11.7052 4.84584 11.4766 6.1408C11.9477 5.89714 12.5645 5.81151 13.1691 5.86749C14.7523 6.01427 16 7.31396 16 8.92917C16 10.6252 14.6251 12.0001 12.9291 12.0001C11.9876 12.0001 11.0873 11.5697 10.5182 10.9657Z" fill="#334155" fill-opacity="0.2"/>
</svg>
