<svg width="10" height="10" viewBox="0 0 10 10" fill="none" xmlns="http://www.w3.org/2000/svg">
<path d="M2.50002 1.25H7.08335V6.66667L4.16669 9.58333L3.64585 9.0625C3.59724 9.01389 3.55731 8.94792 3.52606 8.86458C3.49481 8.78125 3.47919 8.70139 3.47919 8.625V8.47917L3.93752 6.66667H1.25002C1.0278 6.66667 0.833354 6.58333 0.666687 6.41667C0.50002 6.25 0.416687 6.05556 0.416687 5.83333V5C0.416687 4.95139 0.423631 4.89931 0.43752 4.84375C0.451409 4.78819 0.465298 4.73611 0.479187 4.6875L1.72919 1.75C1.79169 1.61111 1.89585 1.49306 2.04169 1.39583C2.18752 1.29861 2.3403 1.25 2.50002 1.25ZM6.25002 2.08333H2.50002L1.25002 5V5.83333H5.00002L4.43752 8.125L6.25002 6.3125V2.08333ZM7.08335 6.66667V5.83333H8.33335V2.08333H7.08335V1.25H9.16669V6.66667H7.08335Z" fill="#FA0017"/>
</svg>
